<svg width="32" height="32" viewBox="0 0 32 32" fill="none" xmlns="http://www.w3.org/2000/svg">
<rect width="32" height="32" rx="16" fill="#f97316" fill-opacity="0.8"/>
<g clip-path="url(#clip0_86_8305)">
<path d="M18.9166 17.6667H18.2583L18.025 17.4417C19.025 16.275 19.5416 14.6833 19.2583 12.9917C18.8666 10.675 16.9333 8.825 14.6 8.54167C11.075 8.10834 8.10831 11.075 8.54164 14.6C8.82497 16.9333 10.675 18.8667 12.9916 19.2583C14.6833 19.5417 16.275 19.025 17.4416 18.025L17.6666 18.2583V18.9167L21.2083 22.4583C21.55 22.8 22.1083 22.8 22.45 22.4583C22.7916 22.1167 22.7916 21.5583 22.45 21.2167L18.9166 17.6667ZM13.9166 17.6667C11.8416 17.6667 10.1666 15.9917 10.1666 13.9167C10.1666 11.8417 11.8416 10.1667 13.9166 10.1667C15.9916 10.1667 17.6666 11.8417 17.6666 13.9167C17.6666 15.9917 15.9916 17.6667 13.9166 17.6667Z" fill="white"/>
</g>
<defs>
<clipPath id="clip0_86_8305">
<rect width="20" height="20" fill="white" transform="translate(6 6)"/>
</clipPath>
</defs>
</svg>
